<svg height="512" viewBox="0 0 32 32" width="512" xmlns="http://www.w3.org/2000/svg"><g id="Layer_2" data-name="Layer 2"><path d="m27 4h-1v-1a1 1 0 0 0 -2 0v1h-4v-1a1 1 0 0 0 -2 0v1h-4v-1a1 1 0 0 0 -2 0v1h-4v-1a1 1 0 0 0 -2 0v1h-1a3 3 0 0 0 -3 3v3h28v-3a3 3 0 0 0 -3-3z"/><path d="m2 27a3 3 0 0 0 3 3h22a3 3 0 0 0 3-3v-15h-28zm20-10h2a1 1 0 0 1 0 2h-2a1 1 0 0 1 0-2zm0 5h2a1 1 0 0 1 0 2h-2a1 1 0 0 1 0-2zm-7-5h2a1 1 0 0 1 0 2h-2a1 1 0 0 1 0-2zm0 5h2a1 1 0 0 1 0 2h-2a1 1 0 0 1 0-2zm-7-5h2a1 1 0 0 1 0 2h-2a1 1 0 0 1 0-2zm0 5h2a1 1 0 0 1 0 2h-2a1 1 0 0 1 0-2z"/></g></svg>