<svg xmlns="http://www.w3.org/2000/svg" version="1.1" xmlns:xlink="http://www.w3.org/1999/xlink" width="512" height="512" x="0" y="0" viewBox="0 0 64 64" style="enable-background:new 0 0 512 512" xml:space="preserve"><g transform="matrix(0.5999999999999995,0,0,0.5999999999999995,12.799999237060568,12.800000000000015)"><path fill="#f1f3f7" d="m49.62 8.03 8.77 45.67-42.37 8.14L5.33 6.23 37.76 0z" opacity="1" data-original="#f1f3f7"></path><path fill="#e5e5e5" d="m49.62 8.03 8.77 45.67-42.37 8.14L5.33 6.23 37.76 0z" opacity="1" data-original="#e5e5e5"></path><g fill="#c6c1c1"><path d="m16.29 63.26-.27-1.42 42.37-8.14.28 1.42M49.62 8.03l-9.95 1.91L37.76 0z" fill="#c6c1c1" opacity="1" data-original="#c6c1c1"></path></g><path fill="#f1f3f7" d="M53.47 16.06v46.5H10.32V5.93h33.02z" opacity="1" data-original="#f1f3f7"></path><path fill="#f1f3f7" d="M53.47 16.06v46.5H10.32V5.93h33.02z" opacity="1" data-original="#f1f3f7"></path><path fill="#c6c1c1" d="M10.32 62.56h43.15V64H10.32z" opacity="1" data-original="#c6c1c1"></path><path fill="#e5e5e5" d="M53.47 16.06H43.34V5.93z" opacity="1" data-original="#e5e5e5"></path><path fill="#c6c1c1" d="M43.34 16.06 53.47 26.4V16.06z" opacity="1" data-original="#c6c1c1"></path><path fill="#506c72" d="M14.76 28.11h34.28v.72H14.76zM14.76 31.29h34.28v.72H14.76zM14.76 34.46h34.28v.72H14.76zM14.76 37.64h34.28v.72H14.76zM14.76 40.82h34.28v.72H14.76zM14.76 43.99h34.28v.72H14.76zM14.76 47.17h34.28v.72H14.76z" opacity="1" data-original="#506c72"></path><path fill="#506c72" d="M41.33 28.47h.72v19.06h-.72zM34.32 28.47h.72v19.06h-.72zM27.31 28.47h.72v19.06h-.72z" opacity="1" data-original="#506c72"></path><path fill="#dededf" d="M14.76 56.7h34.28v.72H14.76z" opacity="1" data-original="#dededf"></path><path fill="#41acd8" d="M38.43 51.93h10.61v.72H38.43z" opacity="1" data-original="#41acd8"></path><path fill="#df4666" d="M19.63 20.86v-3c-.94-.27-1.62-.67-2.06-1.21s-.66-1.2-.66-1.97c0-.78.25-1.44.74-1.97s1.15-.84 1.97-.92v-.71h1.04v.71c.76.09 1.36.35 1.81.78s.74 1 .86 1.72l-1.81.24c-.11-.56-.4-.95-.86-1.15v2.8c1.15.31 1.93.71 2.34 1.21.42.49.62 1.13.62 1.9 0 .86-.26 1.59-.78 2.18s-1.25.95-2.18 1.09v1.34h-1.04v-1.3c-.83-.1-1.5-.41-2.01-.92-.52-.52-.85-1.24-.99-2.18l1.87-.2c.08.38.22.71.43.99.22.25.45.45.71.57zm0-7.52c-.28.1-.51.26-.67.49a1.25 1.25 0 0 0-.02 1.47c.15.22.38.39.69.53zm1.04 7.62c.36-.07.65-.23.87-.5.22-.26.34-.58.34-.93 0-.32-.09-.6-.28-.83s-.5-.41-.93-.53z" opacity="1" data-original="#df4666"></path><path fill="#dededf" d="M27.28 15.5h5.75v.72h-5.75zM27.28 19.03h10.55v.72H27.28zM27.28 22.57h15.34v.72H27.28z" opacity="1" data-original="#dededf"></path></g></svg>