<svg xmlns="http://www.w3.org/2000/svg" version="1.1" xmlns:xlink="http://www.w3.org/1999/xlink" width="512" height="512" x="0" y="0" viewBox="0 0 512 512" style="enable-background:new 0 0 512 512" xml:space="preserve"><g transform="matrix(0.6,0,0,0.6,102.40000152587905,102.4)"><linearGradient id="a" x1="256" x2="256" y1="22" y2="490" gradientUnits="userSpaceOnUse"><stop stop-opacity="1" stop-color="#9a9a9a" offset="0"></stop><stop stop-opacity="1" stop-color="#8b9489" offset="0"></stop><stop stop-opacity="1" stop-color="#6c8d63" offset="1"></stop></linearGradient><path fill="url(#a)" fill-rule="evenodd" d="M104.28 22v249.01L256 407.47l151.72-136.46V22zM270 115.95c0-6.02-2.39-13.2-13.81-13.2-15.67 0-25.8-9.89-25.8-25.2 0-11.88 8.46-21.86 19.8-24.51V44.9c0-3.31 2.69-6 6-6 3.32 0 6 2.69 6 6v8.14C273.54 55.69 282 65.67 282 77.55c0 3.31-2.69 6-6 6s-6-2.69-6-6c0-7.28-6.19-13.2-13.81-13.2-7.61 0-13.8 5.92-13.8 13.2 0 6.02 2.39 13.2 13.8 13.2 15.68 0 25.81 9.89 25.81 25.2 0 11.88-8.46 21.86-19.81 24.51v8.14c0 3.31-2.68 6-6 6-3.31 0-6-2.69-6-6v-8.14c-11.34-2.65-19.8-12.63-19.8-24.51 0-3.31 2.69-6 6-6s6 2.69 6 6c0 7.28 6.19 13.2 13.8 13.2 7.62 0 13.81-5.92 13.81-13.2zm-93.77 152.91c0-3.32 2.69-6 6-6h163.36c3.32 0 6 2.68 6 6 0 3.31-2.68 6-6 6H182.23c-3.31 0-6-2.69-6-6zm0-41.87c0-3.31 2.69-6 6-6h163.36c3.32 0 6 2.69 6 6 0 3.32-2.68 6-6 6H182.23c-3.31 0-6-2.68-6-6zm0-41.86c0-3.31 2.69-6 6-6h126.32c3.31 0 6 2.69 6 6 0 3.32-2.69 6-6 6H182.23c-3.31 0-6-2.68-6-6zm-83.95 75.09-26.99-24.28 26.99-24.27zM62.31 482.53V249.41l129.61 116.56zm384.4-246.59-26.99 24.28v-48.55zm2.98 246.59L320.08 365.97l129.61-116.56zM71.96 490l128.93-115.96 51.1 45.96c1.14 1.02 2.57 1.54 4.01 1.54s2.87-.52 4.01-1.54l51.1-45.96L440.04 490z" clip-rule="evenodd" opacity="1" data-original="url(#a)"></path></g></svg>