<svg xmlns="http://www.w3.org/2000/svg" version="1.1" xmlns:xlink="http://www.w3.org/1999/xlink" width="512" height="512" x="0" y="0" viewBox="0 0 512 512" style="enable-background:new 0 0 512 512" xml:space="preserve"><g transform="matrix(0.5999999999999992,0,0,0.5999999999999992,102.4000000000002,102.4000000000002)"><path fill="#80aef8" d="m208.395 107.597 89.987-89.986 136.979 136.98-89.987 89.986z" opacity="1" data-original="#80aef8"></path><path fill="#4175df" d="M453 197c0-33.137-26.863-60-60-60h-77V60c0-33.137-26.863-60-60-60L146 256l110 256h197z" opacity="1" data-original="#4175df"></path><path fill="#4086f4" d="M59 0h197v512H59z" opacity="1" data-original="#4086f4"></path><path fill="#e3e7ea" d="M310.5 407H256l-20 15 20 15h54.5z" opacity="1" data-original="#e3e7ea"></path><path fill="#ffffff" d="M134 407h122v30H134z" opacity="1" data-original="#ffffff"></path><path fill="#e3e7ea" d="M378 347H256l-20 15 20 15h122z" opacity="1" data-original="#e3e7ea"></path><path fill="#ffffff" d="M134 347h122v30H134z" opacity="1" data-original="#ffffff"></path><path fill="#e3e7ea" d="M378 287H256l-20 15 20 15h122z" opacity="1" data-original="#e3e7ea"></path><path fill="#ffffff" d="M134 287h122v30H134z" opacity="1" data-original="#ffffff"></path><path fill="#e3e7ea" d="M378 227H256l-20 15 20 15h122z" opacity="1" data-original="#e3e7ea"></path><path fill="#ffffff" d="M134 227h122v30H134z" opacity="1" data-original="#ffffff"></path></g></svg>