<svg id="Layer_1" enable-background="new 0 0 110.397 237.183" height="512" viewBox="0 0 110.397 237.183" width="512" xmlns="http://www.w3.org/2000/svg"><g><path d="m37.474 22.5c0 12.427 10.074 22.5 22.5 22.5 12.428 0 22.5-10.073 22.5-22.5s-10.072-22.5-22.5-22.5c-12.426 0-22.5 10.073-22.5 22.5zm13.648 6.111c-.611 1.634-2.43 2.463-4.064 1.852s-2.463-2.43-1.852-4.064 2.43-2.463 4.064-1.852 2.463 2.43 1.852 4.064zm13.619-5.224c1.928.721 2.906 2.868 2.185 4.795s-2.868 2.906-4.795 2.185c-1.928-.721-2.906-2.868-2.185-4.795.72-1.928 2.868-2.906 4.795-2.185z"/><path d="m19.413 71.487 8.446-4.916c.951-.553 1.276-1.784.722-2.735l-14.211-24.415c-.553-.951-1.784-1.276-2.735-.722l-10.643 6.194c-.951.553-1.276 1.784-.723 2.735l3.824 6.57c1.696-1.168 3.723-1.843 5.841-1.843 1.819 0 3.615.487 5.193 1.41 4.841 2.832 6.516 9.029 3.797 13.905-.166.616.005 1.959.489 3.817zm-15.083-23.472c-.626.365-1.43.153-1.795-.474-.365-.626-.152-1.43.474-1.794.626-.365 1.43-.153 1.795.474.365.626.153 1.43-.474 1.794zm1.627-2.074-.503-.864 7.238-4.213.503.864z"/><path d="m103.48 146.146c3.236-.87 5.703-3.724 5.909-7.253 2.472-42.248-2.813-69.811-15.706-81.925-5.61-5.271-11.089-6.178-13.906-6.245-.162-.01-.322-.024-.486-.024h-38.634c-.46 0-.908.048-1.345.125-.301.008-.604.029-.908.072-4.354.607-7.978 2.969-11.002 6.344l3.167 5.441c1.193 2.049.496 4.687-1.553 5.879l-8.933 5.199c.889 2.758 2.249 6.196 4.048 9.936l-1.864 1.389c-4.013-8.249-6.458-16.031-5.432-18.389 2.23-3.813.947-8.714-2.866-10.944-3.815-2.23-8.716-.947-10.944 2.867-3.864 6.606-2.888 16.234 2.983 29.435 1.067 2.399 2.19 4.675 3.258 6.721 2.663 5.106 4.967 8.735 5.101 8.945.003.006.008.01.011.015.167.259.351.506.546.744.067.082.138.159.208.237.133.15.271.295.416.436.086.083.171.167.26.246.162.144.332.279.506.409.067.05.13.106.198.154.236.166.483.316.738.457.091.05.185.093.278.139.178.09.359.174.545.25.107.044.214.084.322.124.178.064.36.121.544.172.114.032.226.066.341.093.187.044.379.076.571.107.112.018.222.043.334.056.002 0 .005.001.007.001.066.008.131.005.197.011.243.022.486.045.73.045.038 0 .077-.008.115-.008.281-.004.558-.025.832-.058.105-.013.209-.028.314-.044.29-.046.576-.104.856-.182.068-.019.136-.041.204-.062.27-.083.532-.18.79-.29.09-.038.18-.076.27-.118.288-.135.568-.285.837-.453.026-.016.054-.026.079-.043.09-.058.171-.123.259-.184s.176-.122.261-.186c.124-.094.243-.191.36-.291.07-.059.139-.119.206-.181.12-.11.236-.222.348-.337.058-.06.115-.121.171-.183.11-.121.218-.244.32-.371.054-.067.105-.137.157-.206.095-.126.189-.253.276-.384.055-.083.105-.169.157-.254.075-.123.151-.246.22-.372.057-.106.107-.217.16-.326.054-.113.112-.224.16-.338.055-.129.101-.263.149-.396.037-.102.078-.202.111-.305.042-.133.075-.271.11-.407.029-.109.062-.218.086-.328.024-.112.039-.227.058-.34.024-.139.052-.277.068-.417.001-.006.002-.013.003-.019.01-.089 1.063-9.009 3.638-18.032.079-.276.158-.523.236-.789v26.369 18.94 98c0 6.83 5.537 12.363 12.363 12.363 6.828 0 12.365-5.533 12.365-12.363v-90.271h4.635v90.271c0 6.83 5.537 12.363 12.363 12.363 6.828 0 12.365-5.533 12.365-12.363v-98-18.94-33.087c4.47 9.298 8.452 28.029 6.396 63.165-.218 3.729 2.159 7.002 5.563 8.083v4.538h-6.917v40.333h18.333v-40.332h-6.917v-4.434zm-47.307-87.264h3.801 3.799l1.9 7.5-.289.456c-1.566 1.306-3.484 1.96-5.413 1.962-1.928-.002-3.843-.655-5.407-1.958l-.292-.46zm3.801 64.5-9.5-12 5.472-40.322c1.297.486 2.662.74 4.026.74h.002.006c1.363 0 2.726-.254 4.021-.74l5.473 40.323z"/></g></svg>