<svg xmlns="http://www.w3.org/2000/svg" version="1.1" xmlns:xlink="http://www.w3.org/1999/xlink" width="512" height="512" x="0" y="0" viewBox="0 0 850 850" style="enable-background:new 0 0 512 512" xml:space="preserve" fill-rule="evenodd"><g transform="matrix(0.7,0,0,0.7,127.5,127.5)"><circle cx="425" cy="425" r="425" fill="#c59253" opacity="1" data-original="#ea4c89"></circle><g fill="#fdfdfd"><path d="M498.99 642.96h-323c-3.9 0-7-3.1-7-7v-341h65c11.63 0 21-9.37 21-21v-64h244c3.9 0 7 3.1 7 7v177.35l-66.76 115.88c-2.2 2.9-3.65 6.36-4.13 10.08l-8 62c-.51 4.01.15 7.97 1.79 11.48-9.21 7.7-18.94 13.66-23.9 12.11-3.3-1-4.6-7.9-5-10.8-1.8-13.4-9.2-19.7-15-22.6-25.8-12.8-74.9 14.4-80.4 17.5a6.99 6.99 0 0 0-2.6 9.5c1.9 3.3 6.1 4.5 9.5 2.6 18.3-10.4 52.8-24.3 67.3-17.1 2.6 1.3 6.2 3.9 7.3 11.9 1.6 12.3 6.6 19.8 14.8 22.3 1.7.6 3.5.8 5.4.8 10.77 0 23.01-8.16 32.42-16.16 2.88 1.42 6.07 2.16 9.28 2.16 4.4 0 8.66-1.49 12.22-4.07l45.78-33.21v67.28c0 3.9-3.1 7-7 7zm-103-116h-194c-3.9 0-7-3.1-7-7s3.1-7 7-7h194c3.9 0 7 3.1 7 7s-3.1 7-7 7zm0-31h-194c-3.9 0-7-3.1-7-7s3.1-7 7-7h194c3.9 0 7 3.1 7 7s-3.1 7-7 7zm0-47h-194c-3.9 0-7-3.1-7-7s3.1-7 7-7h194c3.9 0 7 3.1 7 7s-3.1 7-7 7zm0-30h-194c-3.9 0-7-3.1-7-7s3.1-7 7-7h194c3.9 0 7 3.1 7 7s-3.1 7-7 7zm78-47h-272c-3.9 0-7-3.1-7-7s3.1-7 7-7h272c3.9 0 7 3.1 7 7s-3.1 7-7 7zm0-31h-272c-3.9 0-7-3.1-7-7s3.1-7 7-7h272c3.9 0 7 3.1 7 7s-3.1 7-7 7z" fill="#fdfdfd" opacity="1" data-original="#fdfdfd"></path><path d="M233.99 280.96h-58c-2.8 0-5.4-1.7-6.5-4.3s-.5-5.7 1.6-7.6l58-57c2-2 5-2.6 7.6-1.5s4.3 3.6 4.3 6.4v57c0 3.9-3.1 7-7 7zM460.48 501.36l148.51-257.8c.9-1.6 2.5-2.8 4.3-3.3s3.7-.2 5.3.7l43 25c3.3 1.9 4.5 6.2 2.5 9.5L515.43 533.51l-4.5-2.79c-.49-.34-.99-.66-1.51-.96l-.88-.52-.02-.01-33.63-19.55-.02-.01-8.45-4.91c-.32-.19-.65-.37-.99-.54zM447.99 591.96c-1.2 0-2.5-.3-3.6-1-2.4-1.4-3.7-4.1-3.4-6.9l8-62c.3-2.3 1.7-4.3 3.8-5.4 2.1-1 4.6-1 6.6.2l43 25c2 1.2 3.4 3.3 3.5 5.7s-1 4.6-2.9 6l-51 37c-1.1 1-2.6 1.4-4 1.4zM625.61 228.85l10.38-18.29c1.9-3.4 6.2-4.5 9.5-2.6l32 18c1.6.9 2.8 2.4 3.3 4.2s.3 3.7-.7 5.3l-10.71 18.86c-.25-.15-.5-.31-.75-.46l-43.01-25z" fill="#fdfdfd" opacity="1" data-original="#fdfdfd"></path><path d="M545.99 303.96c-1.2 0-2.4-.3-3.5-.9-3.4-1.9-4.5-6.2-2.6-9.6l28-49c1.9-3.3 6.2-4.5 9.5-2.6l30 17c3.4 1.9 4.5 6.2 2.6 9.5-1.9 3.4-6.2 4.5-9.5 2.6l-23.9-13.6-24.5 42.9c-1.3 2.4-3.7 3.7-6.1 3.7z" fill="#fdfdfd" opacity="1" data-original="#fdfdfd"></path></g></g></svg>