<svg xmlns="http://www.w3.org/2000/svg" version="1.1" xmlns:xlink="http://www.w3.org/1999/xlink" width="512" height="512" x="0" y="0" viewBox="0 0 850 850" style="enable-background:new 0 0 512 512" xml:space="preserve" fill-rule="evenodd" class=""><g transform="matrix(0.7,0,0,0.7,127.5,127.5)"><circle cx="425" cy="425" r="425" fill="#dab983" opacity="1" data-original="#571845" class=""></circle><g fill="#fff"><path d="M220 277h341c4 0 8 4 8 8s-4 8-8 8H220c-4 0-8-4-8-8s4-8 8-8zm0 70h341c4 0 8 3 8 8 0 4-4 8-8 8H220c-4 0-8-4-8-8 0-5 4-8 8-8zm0 70h341c4 0 8 4 8 8s-4 8-8 8H220c-4 0-8-4-8-8s4-8 8-8zm0 70h285c4 0 8 3 8 8 0 4-4 8-8 8H220c-4 0-8-4-8-8 0-5 4-8 8-8zm0 70h232c5 0 8 4 8 8s-3 8-8 8H220c-4 0-8-4-8-8s4-8 8-8zm0 70h240c5 0 8 3 8 8 0 4-3 8-7 8H220c-4 0-8-4-8-8 0-5 4-8 8-8zm-37 54h350c-27-17-44-47-44-81 0-53 43-96 96-96h14V169H183zm378-458H220c-4 0-8-4-8-8 0-5 4-8 8-8h341c4 0 8 3 8 8 0 4-4 8-8 8z" fill="#ffffff" opacity="1" data-original="#ffffff" class=""></path><path d="M585 519c-44 0-81 37-81 81 0 45 37 81 81 81h1c44 0 81-36 81-81 0-38-26-69-61-78-1 0-2-1-3-1-5-1-11-2-18-2zm-43 87 19 19 68-67c3-3 8-3 11 0s3 8 0 11l-73 73c-2 1-4 2-6 2s-4-1-5-2l-25-25c-3-3-3-8 0-11s8-3 11 0z" fill="#ffffff" opacity="1" data-original="#ffffff" class=""></path></g></g></svg>