<svg xmlns="http://www.w3.org/2000/svg" version="1.1" xmlns:xlink="http://www.w3.org/1999/xlink" width="512" height="512" x="0" y="0" viewBox="0 0 850 850" style="enable-background:new 0 0 512 512" xml:space="preserve" fill-rule="evenodd" class=""><g transform="matrix(0.7,0,0,0.7,127.5,127.5)"><circle cx="425" cy="425" r="425" fill="#6c92ab" opacity="1" data-original="#00ccff" class=""></circle><g fill="#fff"><path d="M425 218c-22 0-38-11-38-25s16-24 38-24 38 10 38 24-16 25-38 25z" fill="#ffffff" opacity="1" data-original="#ffffff" class=""></path><path d="M561 607H289c-6 0-12-2-15-7-2-3-3-7-2-11l15-52h276l15 52c1 4 0 8-2 11-4 5-9 7-15 7zm-269-85 15-51h236l15 51zm19-66 15-52h198l15 52zm19-66 15-52h160l15 52zm19-67 15-51h122l15 51zm20-66 12-43c10 13 28 18 44 18s34-6 44-18l13 43z" fill="#ffffff" opacity="1" data-original="#ffffff" class=""></path><path d="M422 681h-2l-239-68c-3-1-5-4-5-7s2-6 6-7l78-18-1 4c-3 8-1 17 4 24 6 8 16 12 26 12h272c10 0 20-4 26-12 4-6 6-13 5-20l77 21c3 1 5 4 5 7 0 4-2 7-6 8l-245 56h-1z" fill="#ffffff" opacity="1" data-original="#ffffff" class=""></path></g></g></svg>