<svg xmlns="http://www.w3.org/2000/svg" version="1.1" xmlns:xlink="http://www.w3.org/1999/xlink" width="512" height="512" x="0" y="0" viewBox="0 0 100 100" style="enable-background:new 0 0 512 512" xml:space="preserve" class=""><g><path fill="#cdcac8" d="M88.632 88.655H11.327v-28.57h77.305z" opacity="1" data-original="#c09e87" class=""></path><path fill="#4e4d4c" d="M88.632 61.766H11.327a1.68 1.68 0 1 1 0-3.361h77.305a1.68 1.68 0 1 1 0 3.361z" opacity="1" data-original="#7f5334" class=""></path><path fill="#4e4d4c" d="M61.743 75.21c-.43 0-.86-.164-1.188-.492L37.027 51.19a1.68 1.68 0 1 1 2.377-2.376l23.528 23.527a1.682 1.682 0 0 1-1.189 2.869z" opacity="1" data-original="#0056d1" class=""></path><path fill="#6f8773" d="m12.898 74.972-.959-14.89v-6.72h16.963l3.554 19.447c.486.82.187 13.298.187 13.298-.464 1.801-2.341 2.896-4.195 2.446-1.853-.45-2.98-2.275-2.517-4.076l-.214-9.616-3.351-13.098h-2.512v11.764l-1.639 12.071c-.191 2.033-2.208 3.478-4.335 2.944-1.667-.418-2.694-2.069-2.538-3.739z" opacity="1" data-original="#95aef7" class=""></path><path fill="#4e4d4c" d="M29.284 90.333c-.407 0-.821-.047-1.233-.147a5.091 5.091 0 0 1-3.194-2.335 4.934 4.934 0 0 1-.612-3.544l-.204-9.215-2.507-9.799v8.236c0 .075-.005.151-.015.227l-1.64 12.07c-.13 1.384-.901 2.707-2.107 3.559a5.225 5.225 0 0 1-4.303.789c-2.406-.604-4.039-2.979-3.803-5.524l1.543-9.755-.947-14.702-.003-6.829c0-.929.752-1.68 1.681-1.68h16.961c.812 0 1.506.579 1.652 1.378l3.54 19.366c.236.919.471 3.648.23 13.721a1.69 1.69 0 0 1-.053.38c-.587 2.278-2.688 3.804-4.986 3.804zM13.621 55.044v5.04l.955 14.781c.008.124.002.248-.018.371L13 85.067c-.07.802.476 1.643 1.289 1.846a1.855 1.855 0 0 0 1.544-.274c.411-.29.663-.715.709-1.198l1.631-12.026V61.764a1.68 1.68 0 0 1 1.68-1.681h2.513c.768 0 1.438.52 1.628 1.264l3.351 13.098c.031.125.049.251.052.379l.213 9.616c.003.155-.015.307-.052.456-.108.416-.043.851.18 1.224.241.4.634.684 1.104.799.903.22 1.823-.258 2.125-1.08.123-5.34.127-11.314-.079-12.42a1.577 1.577 0 0 1-.087-.309L27.5 55.044zm17.388 18.618s0 .002.002.003c-.002-.001-.002-.003-.002-.003z" opacity="1" data-original="#0056d1" class=""></path><path fill="#6f8773" d="M11.939 31.511c0-2.784 3.452-6.718 6.109-6.718l5.042 1.68c2.658.001 5.041 2.258 5.041 5.042v21.848H11.939z" opacity="1" data-original="#ffffff" class=""></path><path fill="#4e4d4c" d="M28.132 55.044H11.941a1.68 1.68 0 0 1-1.681-1.681V31.511c0-3.469 4.029-8.398 7.789-8.398.18 0 .359.03.532.087l4.802 1.601c3.515.159 6.43 3.169 6.43 6.715v21.847a1.68 1.68 0 0 1-1.681 1.681zm-14.511-3.361h12.831V31.516c0-1.791-1.571-3.361-3.362-3.361-.18 0-.359-.03-.531-.087l-4.73-1.576c-1.671.253-4.208 3.217-4.208 5.019z" opacity="1" data-original="#0056d3" class=""></path><path fill="#6f8773" d="m19.729 33.197-1.058 5.182a5.043 5.043 0 0 0 2.654 5.582l13.781 9.64a3.362 3.362 0 0 0 2.801-6.112l-9.943-8.153.169-7.821z" opacity="1" data-original="#ffffff" class=""></path><path fill="#4e4d4c" d="M36.502 55.59a5.016 5.016 0 0 1-2.097-.461 1.904 1.904 0 0 1-.263-.151l-13.689-9.576a6.721 6.721 0 0 1-3.423-7.382l1.053-5.16a1.682 1.682 0 0 1 1.983-1.309 1.679 1.679 0 0 1 1.309 1.982l-1.058 5.183a3.373 3.373 0 0 0 1.764 3.745c.073.036.141.077.207.123l13.635 9.538c.377.14.788.141 1.168-.002.42-.157.755-.467.942-.876a1.674 1.674 0 0 0-.829-2.227 1.749 1.749 0 0 1-.364-.228l-9.942-8.152a1.682 1.682 0 0 1-.615-1.336l.169-7.822c.019-.927.826-1.625 1.717-1.645.929.02 1.664.79 1.645 1.717l-.151 7.004 9.158 7.51a5.048 5.048 0 0 1 2.269 6.579 5.007 5.007 0 0 1-2.828 2.625 5.027 5.027 0 0 1-1.76.321z" opacity="1" data-original="#0056d3" class=""></path><path fill="#6f8773" d="M19.555 18.571c-1.215 3.012-.107 6.298 2.475 7.34s5.661-.556 6.876-3.567c1.215-3.012.107-6.298-2.476-7.34-2.581-1.042-5.66.555-6.875 3.567z" opacity="1" data-original="#ffffff" class=""></path><path fill="#4e4d4c" d="M23.663 27.907a6.06 6.06 0 0 1-2.262-.436c-3.436-1.389-4.963-5.662-3.406-9.529.739-1.828 2.055-3.309 3.711-4.167 1.741-.903 3.641-1.019 5.352-.33 3.438 1.387 4.966 5.66 3.407 9.527-1.227 3.038-4.002 4.935-6.802 4.935zm-2.548-8.708c-.867 2.148-.172 4.46 1.544 5.153 1.715.694 3.822-.487 4.689-2.637.866-2.148.172-4.459-1.546-5.152-.788-.319-1.693-.247-2.547.195-.944.49-1.704 1.356-2.14 2.441z" opacity="1" data-original="#fc801c" class=""></path><path fill="#6f8773" d="m30.986 20.466-10.909-4.401.629-1.559a5.042 5.042 0 0 1 6.561-2.79l1.559.629c2.582 1.042 2.273 3.351 1.231 5.933z" opacity="1" data-original="#fcc18a" class=""></path><path fill="#4e4d4c" d="M30.986 22.147c-.212 0-.425-.04-.629-.122l-10.91-4.402a1.683 1.683 0 0 1-.93-2.188l.629-1.558a6.688 6.688 0 0 1 3.606-3.673 6.675 6.675 0 0 1 5.145-.047l1.558.629c2.247.908 2.88 2.545 3.017 3.762.117 1.044-.076 2.23-.602 3.696l.664 1.564a1.679 1.679 0 0 1-1.548 2.339zm-8.722-7.012 6.233 2.515c.487-1.207.701-2.126.633-2.73-.037-.338-.141-.697-.933-1.016l-1.558-.629a3.37 3.37 0 0 0-4.375 1.86z" opacity="1" data-original="#fc801c" class=""></path><path fill="#6f8773" d="m30.986 20.466 1.559.629z" opacity="1" data-original="#fcc18a" class=""></path><path fill="#4e4d4c" d="M32.544 22.775c-.21 0-.424-.04-.629-.122l-1.558-.629a1.683 1.683 0 0 1-.931-2.188 1.69 1.69 0 0 1 2.188-.931l1.558.629a1.682 1.682 0 0 1-.628 3.241z" opacity="1" data-original="#fc801c" class=""></path><path fill="#4e4d4c" d="M51.704 81.933a1.683 1.683 0 0 1-1.454-.834 1.685 1.685 0 0 1 .606-2.3l20.166-11.764a1.687 1.687 0 0 1 2.299.605 1.685 1.685 0 0 1-.605 2.3L52.549 81.704a1.68 1.68 0 0 1-.845.229z" opacity="1" data-original="#0056d1" class=""></path><path fill="#4e4d4c" d="M88.675 81.933H65.147a1.68 1.68 0 1 1 0-3.361h23.528c.929 0 1.68.751 1.68 1.68s-.751 1.681-1.68 1.681zM88.675 88.655H51.703a1.68 1.68 0 1 1 0-3.361h36.972c.929 0 1.68.751 1.68 1.68s-.751 1.681-1.68 1.681zM88.675 75.21H76.911a1.68 1.68 0 1 1 0-3.361h11.764c.929 0 1.68.752 1.68 1.681s-.751 1.68-1.68 1.68zM88.675 68.488h-6.722a1.68 1.68 0 1 1 0-3.361h6.722c.929 0 1.68.752 1.68 1.681s-.751 1.68-1.68 1.68z" opacity="1" data-original="#7f5334" class=""></path></g></svg>