<svg xmlns="http://www.w3.org/2000/svg" version="1.1" xmlns:xlink="http://www.w3.org/1999/xlink" width="512" height="512" x="0" y="0" viewBox="0 0 242.333 239.507" style="enable-background:new 0 0 512 512" xml:space="preserve" class=""><g><path d="M82.995 52.134c10.989 5.805 24.6 1.602 30.404-9.386.479-.908.884-1.834 1.229-2.772L75.206 19.152a22.8 22.8 0 0 0-1.597 2.577c-5.804 10.989-1.601 24.601 9.386 30.405zM75.441 16.789l.356.188 40.905 21.608.354.187a3.018 3.018 0 0 0 2.82-5.337l-.368-.194c3.415-6.889 3.077-14.701-.274-21.063l-.86 1.628a2.387 2.387 0 1 1-4.222-2.231l2.029-3.841a22.99 22.99 0 0 0-4.538-3.984l-2.684 5.082a2.387 2.387 0 1 1-4.222-2.231l2.684-5.081a22.964 22.964 0 0 0-5.848-1.502l-2.029 3.841a2.388 2.388 0 1 1-4.223-2.231L96.18 0c-7.143.819-13.786 4.943-17.55 11.646l-.369-.195a3.017 3.017 0 0 0-4.076 1.261 3.015 3.015 0 0 0 1.256 4.077z" fill="#baa375" opacity="1" data-original="#000000" class=""></path><path d="m112.333 208.507-18 31h148l-9-31-23-9-15-33-32-10-2.597 3.153-14.406-11.35-9.507 12.067-5.248-1.889-1.464 1.859-14.668-11.609a7.977 7.977 0 0 0 1.35-6.538l-8.632-37.24-3.656-37.505a7.728 7.728 0 0 0-4.091-7.51l-.871-.46c-1.813 7.291-3.788 16.349-4.416 23.376-.336 3.756-1.804 8.998-3.767 14.655l.928 9.517c.033.347.09.69.169 1.03l6.382 27.533-17.151-13.574.646-2.159 1.778-5.941c-.135-.04-11.305-3.393-21.648-7.114l-4.358-3.449 2.929-7.393c11.706 4.526 26.792 9.055 27.454 9.253l2.867-9.58c-.158-.047-15.289-4.59-26.637-8.97l8.451-21.326 9.493-10.812c-.248-.121-.5-.235-.744-.365a24.613 24.613 0 0 1-9.592-9.059l-1.273-.672-.673 19.802-8.451 21.326c-11.268-4.581-25.405-11.637-25.552-11.71l-4.41 8.818-.018-.015-8.624-6.825L33.78 52.822l13.607 2.066c3.211-4.918 6.338-10.337 8.824-14.843l-26.01-3.95-.06-.006a7.658 7.658 0 0 0-.622-.062c-.058-.004-.117-.011-.175-.013a7.729 7.729 0 0 0-.609.001c-.065.002-.13.001-.194.004a7.73 7.73 0 0 0-.549.056c-.08.01-.162.016-.241.029-.166.026-.328.063-.492.1-.091.02-.183.036-.274.06-.159.041-.314.094-.47.145-.088.029-.178.053-.264.085-.167.061-.33.133-.493.206-.069.031-.141.057-.209.09a8.19 8.19 0 0 0-.531.284c-.045.026-.093.049-.138.076a7.467 7.467 0 0 0-.541.36c-.031.022-.063.041-.094.064a7.932 7.932 0 0 0-.496.403c-.034.029-.069.056-.102.085a8.48 8.48 0 0 0-.406.399c-.05.052-.103.101-.152.154-.105.115-.202.237-.3.359-.07.086-.142.17-.208.259-.072.097-.138.2-.206.301-.084.123-.168.246-.244.375-.049.082-.093.169-.139.254a7.845 7.845 0 0 0-.24.465c-.011.023-.025.045-.035.068L9.647 67.263 0 79.507l5.499 4.332 3.226-4.094a7.943 7.943 0 0 0 2.975 2.339 7.97 7.97 0 0 0 3.305.719 8.018 8.018 0 0 0 4.547-1.435l9.876 7.816 9.992 7.908a501.414 501.414 0 0 1-10.283-4.955l-2.778 5.555-1.694 3.388.454.226c2.569 1.275 15.252 7.522 25.885 11.838l-3.896 9.832c-15.679-6.366-23.682-12.193-24.692-12.954-.516 2.464-.738 5.269-.374 7.534l2.825 48.963-20.19 52.141c-2.493 6.438.706 13.678 7.143 16.17 1.484.575 3.01.847 4.511.847 5.012 0 9.741-3.035 11.659-7.989l21.167-54.667c.646-1.666.926-3.45.823-5.233l-1.854-32.14 22.98 29.951-18.014 56.44c-2.099 6.577 1.531 13.61 8.107 15.709 1.265.403 2.544.596 3.804.595 5.294 0 10.21-3.39 11.905-8.702l20-62.666a12.5 12.5 0 0 0-1.991-11.41l-18.444-24.04c-2.069-.253-11.653-1.663-26.581-7.435l3.899-9.839c4.274 1.653 8.995 3.305 13.304 4.747l11.475 9.081 22.702 17.967a7.994 7.994 0 0 0 7.524 5.954l17.18 13.597-1.464 1.859 3.065 4.66-9.507 12.067 16.982 13.379-4.717 7.945zM32.499 83.093c2.867 1.422 15.299 7.528 25.748 11.769l-2.597 6.553z" fill="#baa375" opacity="1" data-original="#000000" class=""></path></g></svg>