<svg xmlns="http://www.w3.org/2000/svg" version="1.1" xmlns:xlink="http://www.w3.org/1999/xlink" width="512" height="512" x="0" y="0" viewBox="0 0 267 267" style="enable-background:new 0 0 512 512" xml:space="preserve" fill-rule="evenodd" class=""><g><path d="M168.17 29.138c-7.11-12.75-20.31-20.614-34.599-20.614-14.293 0-27.494 7.863-34.603 20.614L5.315 197.106c-7.08 12.697-7.046 28.31.083 40.974 7.134 12.668 20.285 20.464 34.516 20.464h187.31c14.23 0 27.382-7.796 34.516-20.464 7.13-12.664 7.163-28.277.083-40.974-27.531-49.38-66.03-118.426-93.653-167.968zm-21.835 12.176 93.653 167.968a16.972 16.972 0 0 1-.033 16.53c-2.65 4.7-7.451 7.73-12.73 7.73H39.913c-5.28 0-10.08-3.03-12.73-7.73a16.972 16.972 0 0 1-.034-16.53l93.657-167.968c2.638-4.734 7.455-7.788 12.764-7.788 5.305 0 10.122 3.054 12.764 7.788z" fill="#ab966d" opacity="1" data-original="#000000"></path><path d="m90.705 155.398 3.925 1.334a12.67 12.67 0 0 0-.179 2.108v24.419c.004 0-25.885 24.268-25.885 24.268-5.034 4.722-5.288 12.639-.571 17.673 4.721 5.033 12.638 5.288 17.672.57l29.836-27.973a12.497 12.497 0 0 0 3.73-6.77l3.191 3.024v22.598c0 6.9 5.605 12.501 12.501 12.501 6.9 0 12.501-5.6 12.501-12.501v-27.973c0-3.43-1.408-6.713-3.9-9.072l-10.3-9.763 8.558 2.904.971 1.68c3.459 5.971 11.113 8.013 17.085 4.558l.112-.066 21.119 7.171c-1.125 1.017-2.23 2.088-3.25 3.334-2.805 3.425-3.068 8.826-5.597 12.31-1.946 2.679-7.567 3.133-9.326 5.591-8.442 11.847-9.921 22.735-1.862 22.735h46.7c7.662 0 14.742-4.2 18.584-11.017 3.838-6.822 3.859-15.23.046-22.064-4.275-7.672-13.168-23.619-18.147-32.545-3.313-5.942-9.914-3.896-17.348 2.263-2.591 2.15-1.854 8.63-3.562 12.71l-21.835-7.414a12.467 12.467 0 0 0-1.08-10.092l-20.476-35.366a12.502 12.502 0 0 0-10.855-6.304H90.172a12.5 12.5 0 0 0-10.855 6.3l-7.46 13.051c-3.425 5.992-1.337 13.635 4.651 17.06 4.655 2.659 10.3 1.992 14.197-1.242zm34.465 2.905 10.272 3.487-5.046-8.713zm-29.49-10.018 3.097 1.054 4.104-4.108h-5.455zm64.776-47.27c-8.746 0-15.85 7.104-15.85 15.851s7.104 15.851 15.85 15.851 15.852-7.104 15.852-15.851-7.105-15.851-15.852-15.851z" fill="#ab966d" opacity="1" data-original="#000000"></path></g></svg>