<svg clip-rule="evenodd" fill-rule="evenodd" height="2.833in" image-rendering="optimizeQuality" shape-rendering="geometricPrecision" text-rendering="geometricPrecision" viewBox="0 0 2.83333 2.83333" width="2.833in" xmlns="http://www.w3.org/2000/svg" xmlns:xlink="http://www.w3.org/1999/xlink"><linearGradient id="id0" gradientUnits="userSpaceOnUse" x1="0" x2="2.833" y1="1.417" y2="1.417"><stop offset="0" stop-color="#26a9e0"/><stop offset=".0901961" stop-color="#2297d3"/><stop offset=".231373" stop-color="#1e84c6"/><stop offset=".368627" stop-color="#1c79be"/><stop offset=".521569" stop-color="#1b75bb"/><stop offset=".960784" stop-color="#2b388f"/><stop offset="1" stop-color="#2b388f"/></linearGradient><circle cx="1.417" cy="1.417" fill="url(#id0)" r="1.417"/><g id="Layer_x0020_1"><g id="_740219592" fill="#fff"><path id="_740220168" d="m1.27302 2.13653h-.037c.00174016-.004.00272047-.00850394.00272441-.0132638v-.120492c0-.0166417-.0119331-.0301181-.0266654-.0301181-.0147362 0-.0266693.0134764-.0266693.0301181v.120492c0 .00475984.00097638.00926378.00271654.0132638h-.521228c-.00757087 0-.0147913-.00320472-.0198465-.00885827-.00505512-.00565354-.00748819-.0131575-.00665354-.020685l.165193-1.51987c.0014685-.0135276.0129016-.0237795.0265157-.0237795h.353303v.0539173c0 .0166417.0119331.030122.0266693.030122.0147165 0 .0266496-.0134803.0266654-.030122v-.0539173h.353276c.0136102 0 .0250394.010252.0265157.0237795l.0601339.553201c-.179831.0365-.315567.195799-.315567.386256 0 .0590079.0349055.131429.0620079.182835.0340787.0646339.0732362.127512.112374.189457-.107819.021563-.269421.0743425-.269421.201937 0 .0105.00124016.0209449.00371654.0311496.00037402.00154331.00081496.00305512.00124016.0045748zm-.0609409-.28435c-.0147362 0-.0266693-.0134803-.0266693-.030122v-.120476c0-.0166457.0119331-.0301181.0266693-.0301181.0147323 0 .0266654.0134724.0266654.0301181v.120476c-.00001575.0166299-.0119488.030122-.0266654.030122zm0-.301193c-.0147362 0-.0266693-.0134764-.0266693-.030122v-.120476c0-.0166457.0119331-.0301181.0266693-.0301181.0147323 0 .0266654.0134724.0266654.0301181v.120476c-.00001575.0166299-.0119488.030122-.0266654.030122zm0-.301205c-.0147362 0-.0266693-.0134803-.0266693-.0301181v-.12048c0-.0166417.0119331-.0301181.0266693-.0301181.0147323 0 .0266654.0134764.0266654.0301181v.12048c-.00001575.0166378-.0119488.0301181-.0266654.0301181zm0-.301193c-.0147362 0-.0266693-.0134764-.0266693-.030122v-.120476c0-.0166378.0119331-.0301181.0266693-.0301181.0147323 0 .0266654.0134803.0266654.0301181v.120476c-.00001575.016626-.0119488.030122-.0266654.030122z"/><g><path id="_740220480" d="m1.75723 2.13471c-.0101102 0-.0193465-.00570866-.0238622-.014752-.0272244-.0544449-.0736693-.127764-.122843-.205402-.0954173-.150606-.194087-.306362-.194087-.38798 0-.187917.152878-.340791.340776-.340791.187917 0 .340795.152874.340795.340791 0 .081626-.0986693.237358-.194087.387972-.0491811.0776339-.0956378.150969-.122858.205413-.00448425.00903937-.0137165.014748-.0238346.014748zm0-.42578c-.100555 0-.182358-.0818071-.182358-.182346 0-.100555.0818031-.182362.182358-.182362.100559 0 .182362.0818071.182362.182362 0 .100539-.0817874.182346-.182362.182346zm0-.311374c-.0711378 0-.129028.0578898-.129028.129028 0 .0711378.0578898.129012.129028.129012.0711417 0 .129031-.057874.129031-.129012 0-.0711378-.057874-.129028-.129031-.129028z"/><path id="_740220408" d="m1.75724 2.26998c-.211287 0-.435846-.0592874-.435846-.169177 0-.0819843.117882-.130783.246783-.153437.0400551.0630945.084248.129929.11748.196429.0135472.0271142.0412559.0442441.0715669.0442441.0303346 0 .0580512-.0171535.0715709-.0443031.0331024-.0664606.0774449-.133346.117465-.196378.128925.0226496.246831.0714488.246831.153445 0 .109906-.224559.169177-.43585.169177z"/><path id="_740219472" d="m1.75723 2.13653c-.00988976 0-.019248-.00551181-.0238622-.014748l-.016878-.033748c-.00648819-.0129882-.00140157-.0287677.0114449-.0355276.012878-.00679528.0287362-.002.035748.0107087.00626378.0113307.012.0221654.0171142.0323701.00112205.00223622.00192913.00461024.00237008.00707087.00064173.00229528.00098819.00470866.00098819.00720866 0 .0146654-.0118465.0265551-.0264567.0266654-.00012992 0-.00029921 0-.0004685 0z"/></g></g></g></svg>