<svg xmlns="http://www.w3.org/2000/svg" version="1.1" xmlns:xlink="http://www.w3.org/1999/xlink" width="512" height="512" x="0" y="0" viewBox="0 0 100 100" style="enable-background:new 0 0 512 512" xml:space="preserve" class=""><g><path d="m59.56 73.722-8.704 5.077a1.685 1.685 0 0 0-.606 2.3 1.682 1.682 0 0 0 2.299.605L72.716 69.94a1.684 1.684 0 0 0 .605-2.3 1.685 1.685 0 0 0-2.299-.605l-8.461 4.936-10.205-10.205h36.277a1.68 1.68 0 1 0 0-3.361H48.995l-7.468-7.468a5.048 5.048 0 0 0-2.707-4.87l-9.007-7.387v-7.164c0-1.918-.857-3.675-2.196-4.913a8.177 8.177 0 0 0 2.849-3.631c.106-.263.195-.528.273-.794l1.177.475a1.681 1.681 0 1 0 1.257-3.119l-.912-.368-.392-.923c.526-1.466.719-2.652.602-3.696-.136-1.216-.77-2.854-3.017-3.762l-1.558-.629a6.675 6.675 0 0 0-5.145.047 6.682 6.682 0 0 0-3.606 3.673l-.629 1.558c-.165.414-.162.877.013 1.287.011.025.027.047.039.071-.216.365-.41.747-.573 1.148-.706 1.753-.773 3.587-.32 5.201-3.649.308-7.416 5.013-7.416 8.368v21.852l.003 5.431a1.67 1.67 0 0 0-.617 1.291c0 .561.277 1.053.698 1.359l.866 13.45-1.543 9.755c-.236 2.545 1.396 4.92 3.803 5.524a5.228 5.228 0 0 0 4.303-.789c.304-.215.58-.46.826-.729a4.9 4.9 0 0 0 1.281-2.83l1.64-12.07a1.73 1.73 0 0 0 .015-.227V65.29l2.507 9.799.204 9.215a4.934 4.934 0 0 0 .612 3.544 5.115 5.115 0 0 0 3.194 2.335 5.212 5.212 0 0 0 5.059-1.532 4.987 4.987 0 0 0 1.162-2.127c.031-.125.049-.251.053-.38.241-10.073.006-12.802-.23-13.721l-1.949-10.661h15.457zM44.242 58.405H31.531l-.977-5.344a1.672 1.672 0 0 0-.741-1.104v-.007l4.329 3.028c.084.058.171.108.263.151a5.02 5.02 0 0 0 2.097.461c.592 0 1.187-.107 1.759-.32a5.025 5.025 0 0 0 1.746-1.1zM30.891 73.42c.205 1.106.202 7.08.079 12.42-.302.822-1.223 1.3-2.125 1.08a1.761 1.761 0 0 1-1.104-.799 1.587 1.587 0 0 1-.18-1.224c.037-.15.056-.302.052-.456l-.213-9.616a1.738 1.738 0 0 0-.052-.379l-3.244-12.68-.107-.418a1.679 1.679 0 0 0-1.609-1.262l-.019-.002h-2.513l-.017.002a1.679 1.679 0 0 0-1.664 1.679v11.651l-1.631 12.026a1.647 1.647 0 0 1-.709 1.199 1.856 1.856 0 0 1-1.544.274c-.814-.205-1.361-1.045-1.291-1.848l1.558-9.832c.02-.123.026-.246.018-.371l-.846-13.098-.109-1.681v-5.042H27.5l.615 3.361.308 1.68.307 1.681 2.075 11.345c.017.106.047.21.086.31zM17.829 26.492l4.73 1.576c.172.057.351.087.531.087 1.788 0 3.355 1.565 3.361 3.351l-.008.348-.161 7.448c-.006.267.056.528.169.763.105.218.255.415.446.573l1.234 1.011 1.681 1.378 7.027 5.762c.042.035.092.056.137.086.075.05.146.104.227.142a1.673 1.673 0 0 1 .829 2.227 1.685 1.685 0 0 1-.943.876 1.665 1.665 0 0 1-1.168.002l-6.11-4.274-1.681-1.176-1.68-1.175-4.164-2.912a1.59 1.59 0 0 0-.207-.123 3.373 3.373 0 0 1-1.764-3.745l1.058-5.183a1.678 1.678 0 0 0-1.309-1.983 1.683 1.683 0 0 0-1.983 1.31l-1.053 5.16a6.721 6.721 0 0 0 3.423 7.382L26.45 49.6v2.084H13.621V31.511c0-1.802 2.537-4.766 4.208-5.019zm9.222-13.05.016.006 1.13.456c.726.292.872.618.921.93l.012.086c.056.502-.092 1.231-.42 2.151-.067.189-.131.373-.213.579l-5.965-2.406-.268-.108a3.371 3.371 0 0 1 4.376-1.86zm.297 8.273c-.867 2.15-2.974 3.331-4.689 2.637-1.717-.693-2.411-3.005-1.544-5.153.106-.264.233-.515.375-.752l6.109 2.465a5.31 5.31 0 0 1-.251.803zm63.007 58.537c0 .929-.751 1.68-1.68 1.68H65.147a1.68 1.68 0 1 1 0-3.361H88.675c.929 0 1.68.752 1.68 1.681zm0 6.722a1.68 1.68 0 0 1-1.68 1.681H51.703a1.68 1.68 0 1 1 0-3.361h36.973c.928 0 1.679.751 1.679 1.68zm0-13.444c0 .929-.751 1.68-1.68 1.68H76.911a1.68 1.68 0 1 1 0-3.361H88.675c.929 0 1.68.752 1.68 1.681zm0-6.723c0 .93-.751 1.681-1.68 1.681h-6.723a1.68 1.68 0 1 1 0-3.361h6.723c.929 0 1.68.752 1.68 1.68z" fill="#ab966d" opacity="1" data-original="#000000" class=""></path></g></svg>