<svg xmlns="http://www.w3.org/2000/svg" version="1.1" xmlns:xlink="http://www.w3.org/1999/xlink" width="512" height="512" x="0" y="0" viewBox="0 0 850 850" style="enable-background:new 0 0 512 512" xml:space="preserve" fill-rule="evenodd" class=""><g transform="matrix(0.7,0,0,0.7,127.5,127.5)"><circle cx="425" cy="425" r="425" fill="#145c7e" opacity="1" data-original="#3a5a99" class=""></circle><g fill="#fff"><path d="M290 669H176c-4 0-7-3-7-7V387c0-4 3-8 7-8h114c13 0 24 11 24 24v243c-1 13-11 23-24 23zm-49-177c-18 0-33-15-33-33 0-19 15-34 33-34 19 0 34 15 34 34 0 18-15 33-34 33zm0-53c-11 0-19 9-19 20 0 10 8 19 19 19s19-9 19-19c0-11-8-20-19-20zM609 669H350c-11 0-20-2-27-6 3-5 5-11 5-17V403c0-11-5-20-12-27 7-5 17-9 28-14 43-16 92-111 92-113l13-26c14-29 35-45 54-42 16 4 26 20 27 44 0 27-5 50-10 72s-10 45-10 72c0 9 3 10 5 10h124c26 0 42 23 42 43 0 11-4 21-12 28-4 3-7 6-12 7 10 9 16 22 16 34 0 11-4 21-13 28-4 3-8 6-14 8 10 8 15 21 15 33 0 11-4 21-13 28-3 3-7 5-12 7 9 8 14 20 14 32 0 11-4 21-11 28-7 9-17 14-30 14z" fill="#ffffff" opacity="1" data-original="#ffffff"></path></g></g></svg>