<svg xmlns="http://www.w3.org/2000/svg" version="1.1" xmlns:xlink="http://www.w3.org/1999/xlink" width="512" height="512" x="0" y="0" viewBox="0 0 2833 2833" style="enable-background:new 0 0 512 512" xml:space="preserve" fill-rule="evenodd" class=""><g transform="matrix(0.7,0,0,0.7,425.1,425.1)"><circle cx="1417" cy="1417" r="1417" fill="#949b9f" opacity="1" data-original="#571845" class=""></circle><g fill="#fdfdfd"><path d="M1913 2110H917c-13 0-24-10-24-23V747c0-13 11-24 24-24h996c13 0 24 11 24 24v1340c0 13-11 23-24 23zm-103-120h-377c-13 0-23-10-23-23s10-24 23-24h377c13 0 23 11 23 24s-10 23-23 23zm0-133h-777c-13 0-23-11-23-24s10-23 23-23h777c13 0 23 10 23 23s-10 24-23 24zm0-137h-777c-13 0-23-10-23-23s10-24 23-24h777c13 0 23 11 23 24s-10 23-23 23zm0-133h-777c-13 0-23-11-23-24s10-23 23-23h777c13 0 23 10 23 23s-10 24-23 24zm0-134h-777c-13 0-23-10-23-23s10-23 23-23h777c13 0 23 10 23 23s-10 23-23 23zm0-136h-777c-13 0-23-11-23-24s10-23 23-23h777c13 0 23 10 23 23s-10 24-23 24zm0-134h-777c-13 0-23-10-23-23s10-23 23-23h777c13 0 23 10 23 23s-10 23-23 23zm-503-110h-287c-13 0-23-10-23-23V867c0-13 10-24 23-24h287c13 0 23 11 23 24v183c0 13-10 23-23 23zm-264-47h240V890h-240zM1513 2270c-4 0-8-1-11-3l-191-110h280l-57 101c-3 5-8 9-15 11-2 1-4 1-6 1zm-666-381-209-122c-11-7-14-21-8-32l217-376zm1136-946 212 120c5 3 9 9 11 15 1 6 0 12-3 17l-220 381zm-743-266 60-102c6-11 20-15 32-8l190 110zM2144 1291l123 211c3 5 4 11 2 17s-6 11-11 15l-275 156v-121zM687 1543l-121-211c-6-11-2-26 9-32l272-156v121z" fill="#fdfdfd" opacity="1" data-original="#fdfdfd"></path></g></g></svg>