<svg xmlns="http://www.w3.org/2000/svg" version="1.1" xmlns:xlink="http://www.w3.org/1999/xlink" width="512" height="512" x="0" y="0" viewBox="0 0 850 850" style="enable-background:new 0 0 512 512" xml:space="preserve" fill-rule="evenodd" class=""><g transform="matrix(0.7,0,0,0.7,127.5,127.5)"><circle cx="425" cy="425" r="425" fill="#6b8563" opacity="1" data-original="#3a5a99" class=""></circle><g fill="#fff"><path d="M281 384h255c4 0 8 4 8 8s-4 8-8 8H281c-5 0-8-4-8-8s3-8 8-8zm0 51h255c4 0 8 4 8 8s-4 8-8 8H281c-5 0-8-4-8-8s3-8 8-8zm0 51h255c4 0 8 3 8 8 0 4-4 8-8 8H281c-5 0-8-4-8-8 0-5 3-8 8-8zm0 51h255c4 0 8 4 8 8s-4 8-8 8H281c-5 0-8-4-8-8s3-8 8-8zm94-221c3-3 8-2 11 1 3 5 8 8 15 10v-37c-19-3-33-16-33-33 0-16 14-30 33-33v-12c0-4 3-8 7-8 5 0 8 4 8 8v12c12 2 22 8 28 16 2 4 2 9-2 11s-8 2-11-2-8-8-15-9v36c19 3 33 17 33 33 0 17-14 31-33 34v13c0 4-4 8-8 8s-7-4-7-8v-13c-11-2-21-8-27-16-3-3-2-8 1-11zm143 279h2c3 0 5 1 6 2 2 2 3 4 3 6 0 1 0 2-1 3v39c0 18 16 34 35 34 1 0 2 0 4 1h8c12 0 22-10 22-22V205c0-13 5-24 13-33H257c-12 0-22 10-22 22v401zM612 239h69v-34c0-17-14-32-31-34-1 1-2 1-3 1h-9c-15 3-26 17-26 33z" fill="#ffffff" opacity="1" data-original="#ffffff"></path><path d="M401 274v-34c-10 3-17 9-17 17s7 15 17 17zM416 292v35c10-3 18-10 18-18s-8-15-18-17zM513 611H169v35c0 19 15 34 34 34h325c-10-9-15-22-15-35z" fill="#ffffff" opacity="1" data-original="#ffffff"></path></g></g></svg>